<svg width="100" height="100" xmlns="http://www.w3.org/2000/svg">
  <rect width="100" height="100" fill="none"></rect>
  <g stroke="#223c28" stroke-width="1">
    <line x1="0" y1="10" x2="100" y2="10"></line>
    <line x1="0" y1="20" x2="100" y2="20"></line>
    <line x1="0" y1="30" x2="100" y2="30"></line>
    <line x1="0" y1="40" x2="100" y2="40"></line>
    <line x1="0" y1="50" x2="100" y2="50"></line>
    <line x1="0" y1="60" x2="100" y2="60"></line>
    <line x1="0" y1="70" x2="100" y2="70"></line>
    <line x1="0" y1="80" x2="100" y2="80"></line>
    <line x1="0" y1="90" x2="100" y2="90"></line>
    <line x1="10" y1="0" x2="10" y2="100"></line>
    <line x1="20" y1="0" x2="20" y2="100"></line>
    <line x1="30" y1="0" x2="30" y2="100"></line>
    <line x1="40" y1="0" x2="40" y2="100"></line>
    <line x1="50" y1="0" x2="50" y2="100"></line>
    <line x1="60" y1="0" x2="60" y2="100"></line>
    <line x1="70" y1="0" x2="70" y2="100"></line>
    <line x1="80" y1="0" x2="80" y2="100"></line>
    <line x1="90" y1="0" x2="90" y2="100"></line>
  </g>
</svg>
